<svg width="390" height="390" viewBox="0 0 390 390" fill="none" xmlns="http://www.w3.org/2000/svg">
<path d="M309.141 100H305.188V109.844C305.188 113.092 302.519 115.75 299.258 115.75H279.492C276.231 115.75 273.562 113.092 273.562 109.844V100H115.438V109.844C115.438 113.092 112.769 115.75 109.508 115.75H89.7422C86.4809 115.75 83.8125 113.092 83.8125 109.844V100H79.8594C73.2873 100 68 105.266 68 111.812V277.188C68 283.734 73.2873 289 79.8594 289H83.8125V279.156C83.8125 275.908 86.4809 273.25 89.7422 273.25H109.508C112.769 273.25 115.438 275.908 115.438 279.156V289H273.562V279.156C273.562 275.908 276.231 273.25 279.492 273.25H299.258C302.519 273.25 305.188 275.908 305.188 279.156V289H309.141C315.713 289 321 283.734 321 277.188V111.812C321 105.266 315.713 100 309.141 100ZM115.438 251.594C115.438 254.842 112.769 257.5 109.508 257.5H89.7422C86.4809 257.5 83.8125 254.842 83.8125 251.594V231.906C83.8125 228.658 86.4809 226 89.7422 226H109.508C112.769 226 115.438 228.658 115.438 231.906V251.594ZM115.438 204.344C115.438 207.592 112.769 210.25 109.508 210.25H89.7422C86.4809 210.25 83.8125 207.592 83.8125 204.344V184.656C83.8125 181.408 86.4809 178.75 89.7422 178.75H109.508C112.769 178.75 115.438 181.408 115.438 184.656V204.344ZM115.438 157.094C115.438 160.342 112.769 163 109.508 163H89.7422C86.4809 163 83.8125 160.342 83.8125 157.094V137.406C83.8125 134.158 86.4809 131.5 89.7422 131.5H109.508C112.769 131.5 115.438 134.158 115.438 137.406V157.094ZM249.844 259.469C249.844 262.717 247.175 265.375 243.914 265.375H145.086C141.825 265.375 139.156 262.717 139.156 259.469V212.219C139.156 208.97 141.825 206.312 145.086 206.312H243.914C247.175 206.312 249.844 208.97 249.844 212.219V259.469ZM249.844 176.781C249.844 180.03 247.175 182.688 243.914 182.688H145.086C141.825 182.688 139.156 180.03 139.156 176.781V129.531C139.156 126.283 141.825 123.625 145.086 123.625H243.914C247.175 123.625 249.844 126.283 249.844 129.531V176.781ZM305.188 251.594C305.188 254.842 302.519 257.5 299.258 257.5H279.492C276.231 257.5 273.562 254.842 273.562 251.594V231.906C273.562 228.658 276.231 226 279.492 226H299.258C302.519 226 305.188 228.658 305.188 231.906V251.594ZM305.188 204.344C305.188 207.592 302.519 210.25 299.258 210.25H279.492C276.231 210.25 273.562 207.592 273.562 204.344V184.656C273.562 181.408 276.231 178.75 279.492 178.75H299.258C302.519 178.75 305.188 181.408 305.188 184.656V204.344ZM305.188 157.094C305.188 160.342 302.519 163 299.258 163H279.492C276.231 163 273.562 160.342 273.562 157.094V137.406C273.562 134.158 276.231 131.5 279.492 131.5H299.258C302.519 131.5 305.188 134.158 305.188 137.406V157.094Z" fill="url(#paint0_linear)"/>
<defs>
<linearGradient id="paint0_linear" x1="321" y1="68.2418" x2="56.83" y2="315.066" gradientUnits="userSpaceOnUse">
<stop stop-color="#FFBBBB"/>
<stop offset="1" stop-color="#FF6B6B"/>
</linearGradient>
</defs>
</svg>
