<svg width="150" height="150" viewBox="0 0 150 150" fill="none" xmlns="http://www.w3.org/2000/svg">
<path d="M137.674 25.3167L110.87 43.1545V80.293L137.674 98.1071C142.859 101.552 150 98.0364 150 92.0196V31.4042C150 25.4111 142.883 21.8718 137.674 25.3167Z" fill="#FFA826"/>
<path d="M91.3583 16.2751H12.9891C5.81519 16.2751 0 21.3397 0 27.5875V95.8404C0 102.088 5.81519 107.153 12.9891 107.153H91.3583C98.5322 107.153 104.347 102.088 104.347 95.8404V27.5875C104.347 21.3397 98.5322 16.2751 91.3583 16.2751Z" fill="url(#paint0_linear)"/>
<path d="M25.9919 118.402L30.1179 131.263L34.2312 118.402H40.0964V136.887H35.6276V132.57L36.0593 123.734L31.5905 136.887H28.6452L24.1638 123.722L24.5954 132.57V136.887H20.1394V118.402H25.9919ZM40.9038 129.892C40.9038 128.521 41.1704 127.302 41.7036 126.235C42.2368 125.16 43.0028 124.335 44.0015 123.76C45.0002 123.184 46.1724 122.896 47.5181 122.896C49.5747 122.896 51.1955 123.535 52.3804 124.813C53.5653 126.083 54.1577 127.814 54.1577 130.006V130.158C54.1577 132.299 53.561 134.001 52.3677 135.262C51.1828 136.514 49.5747 137.141 47.5435 137.141C45.5884 137.141 44.0184 136.557 42.8335 135.389C41.6486 134.212 41.0096 132.621 40.9165 130.615L40.9038 129.892ZM45.1821 130.158C45.1821 131.428 45.381 132.359 45.7788 132.951C46.1766 133.544 46.7648 133.84 47.5435 133.84C49.0669 133.84 49.8455 132.668 49.8794 130.323V129.892C49.8794 127.429 49.0923 126.197 47.5181 126.197C46.0877 126.197 45.3133 127.259 45.1948 129.384L45.1821 130.158ZM60.0179 131.796L62.1888 123.15H66.6956L62.2142 136.887H57.847L53.3655 123.15H57.8851L60.0179 131.796ZM71.1847 136.887H66.8937V123.15H71.1847V136.887ZM66.6398 119.608C66.6398 118.999 66.8598 118.5 67.2999 118.11C67.74 117.721 68.3113 117.526 69.0138 117.526C69.7162 117.526 70.2875 117.721 70.7276 118.11C71.1677 118.5 71.3878 118.999 71.3878 119.608C71.3878 120.218 71.1677 120.717 70.7276 121.106C70.2875 121.496 69.7162 121.69 69.0138 121.69C68.3113 121.69 67.74 121.496 67.2999 121.106C66.8598 120.717 66.6398 120.218 66.6398 119.608ZM79.1776 137.141C77.0702 137.141 75.3648 136.514 74.0614 135.262C72.758 134.001 72.1064 132.363 72.1064 130.349V129.993C72.1064 128.588 72.3645 127.348 72.8808 126.273C73.4055 125.199 74.1672 124.369 75.1659 123.785C76.1646 123.193 77.3495 122.896 78.7206 122.896C80.6503 122.896 82.1737 123.497 83.2909 124.699C84.4081 125.893 84.9667 127.56 84.9667 129.701V131.364H76.4608C76.6132 132.134 76.9475 132.74 77.4638 133.18C77.9801 133.62 78.6487 133.84 79.4696 133.84C80.8238 133.84 81.8817 133.366 82.6435 132.418L84.5985 134.729C84.0653 135.465 83.3079 136.053 82.3261 136.493C81.3528 136.925 80.3033 137.141 79.1776 137.141ZM78.6952 126.197C77.4426 126.197 76.6978 127.027 76.4608 128.686H80.7773V128.355C80.7942 127.67 80.6207 127.141 80.2567 126.769C79.8928 126.388 79.3723 126.197 78.6952 126.197ZM90.771 136.887V118.402H97.4106C99.7889 118.402 101.596 118.838 102.832 119.71C104.076 120.582 104.698 121.847 104.698 123.506C104.698 124.462 104.478 125.279 104.038 125.956C103.597 126.633 102.95 127.132 102.095 127.454C103.06 127.708 103.801 128.182 104.317 128.876C104.833 129.57 105.091 130.416 105.091 131.415C105.091 133.226 104.516 134.589 103.365 135.503C102.222 136.409 100.525 136.87 98.2739 136.887H90.771ZM95.2271 129.028V133.459H98.147C98.951 133.459 99.5688 133.277 100 132.913C100.432 132.541 100.648 132.02 100.648 131.352C100.648 129.811 99.882 129.037 98.3501 129.028H95.2271ZM95.2271 126.108H97.5503C98.5236 126.1 99.2176 125.922 99.6323 125.575C100.047 125.228 100.254 124.716 100.254 124.039C100.254 123.26 100.03 122.702 99.5815 122.363C99.133 122.016 98.4093 121.843 97.4106 121.843H95.2271V126.108ZM105.518 129.892C105.518 128.521 105.784 127.302 106.318 126.235C106.851 125.16 107.617 124.335 108.616 123.76C109.614 123.184 110.786 122.896 112.132 122.896C114.189 122.896 115.81 123.535 116.994 124.813C118.179 126.083 118.772 127.814 118.772 130.006V130.158C118.772 132.299 118.175 134.001 116.982 135.262C115.797 136.514 114.189 137.141 112.158 137.141C110.202 137.141 108.632 136.557 107.448 135.389C106.263 134.212 105.624 132.621 105.531 130.615L105.518 129.892ZM109.796 130.158C109.796 131.428 109.995 132.359 110.393 132.951C110.791 133.544 111.379 133.84 112.158 133.84C113.681 133.84 114.46 132.668 114.493 130.323V129.892C114.493 127.429 113.706 126.197 112.132 126.197C110.702 126.197 109.927 127.259 109.809 129.384L109.796 130.158ZM124.645 126.934L126.638 123.15H131.081L127.463 129.841L131.259 136.887H126.79L124.632 132.824L122.512 136.887H118.018L121.826 129.841L118.221 123.15H122.715L124.645 126.934Z" fill="#24E5FF"/>
<defs>
<linearGradient id="paint0_linear" x1="103.928" y1="15.9961" x2="6.43938" y2="106.301" gradientUnits="userSpaceOnUse">
<stop stop-color="#F2B4B4"/>
<stop offset="0.46875" stop-color="#F59B9B"/>
<stop offset="1" stop-color="#FF4444"/>
</linearGradient>
</defs>
</svg>
