<svg width="390" height="390" viewBox="0 0 390 390" fill="none" xmlns="http://www.w3.org/2000/svg">
<path d="M136.663 190.404C118.162 195.792 105.751 211.648 106.999 228.611C112.877 222.053 121.854 216.391 132.728 212.668L136.663 190.404V190.404ZM79.4029 216.108L63.0422 123.549C62.8927 122.714 63.1866 122.198 63.166 122.182C92.9483 105.652 126.649 96.912 160.624 96.912C161.454 96.912 162.289 96.9996 163.124 97.0099C170.317 90.0645 179.485 85.2383 189.725 83.6038C199.465 82.0467 209.345 81.2578 219.208 80.8607C214.057 73.6679 206.586 68.3673 197.671 66.939C185.342 64.9745 172.952 64 160.618 64C121.091 64 82.0893 74.0133 47.1199 93.4212C34.6573 100.341 27.98 114.778 30.5426 129.267L46.9033 221.826C54.2406 263.343 117.198 295.085 152.322 295.085C154.173 295.085 155.802 294.848 157.483 294.672C150.512 285.866 142.561 273.8 137.116 259.827C112.568 253.134 82.4296 233.211 79.4029 216.108V216.108ZM129.702 145.231C129.325 143.106 128.552 141.173 127.603 139.353C123.349 143.947 116.945 147.474 109.391 148.799C101.838 150.129 94.6086 149.005 89.0347 146.133C88.7666 148.164 88.7047 150.248 89.0811 152.372C91.0611 163.561 101.755 171.032 112.975 169.063C124.19 167.093 131.682 156.42 129.702 145.231V145.231ZM342.88 126.338C297 100.877 244.175 91.5805 192.329 99.8613C178.247 102.109 167.022 113.401 164.465 127.89L148.104 220.449C140.169 265.334 197.233 321.65 229.732 327.363C262.232 333.081 335.161 299.628 343.097 254.743L359.457 162.184C362.02 147.69 355.343 133.253 342.88 126.338V126.338ZM201.992 176.25C203.972 165.061 214.666 157.59 225.886 159.565C237.106 161.54 244.592 172.208 242.618 183.397C242.241 185.521 241.468 187.455 240.519 189.275C236.265 184.681 229.861 181.154 222.307 179.829C214.753 178.498 207.524 179.622 201.951 182.494C201.677 180.458 201.615 178.375 201.992 176.25ZM238.328 278.735C209.618 273.687 190.107 248.174 192.417 220.521C203.039 233.69 221.4 244.327 243.716 248.251C266.032 252.175 286.935 248.442 301.429 239.692C294.118 266.473 267.032 283.783 238.328 278.735V278.735ZM305.513 200.701C301.259 196.107 294.85 192.58 287.296 191.255C279.742 189.924 272.513 191.049 266.939 193.921C266.671 191.889 266.609 189.806 266.986 187.682C268.966 176.493 279.66 169.021 290.88 170.991C302.095 172.966 309.586 183.634 307.612 194.823C307.235 196.952 306.462 198.886 305.513 200.701Z" fill="url(#paint0_linear)"/>
<defs>
<linearGradient id="paint0_linear" x1="360" y1="64" x2="61.51" y2="327.791" gradientUnits="userSpaceOnUse">
<stop stop-color="#E3C2C2"/>
<stop offset="1" stop-color="#FF4444"/>
</linearGradient>
</defs>
</svg>
