<svg width="390" height="390" viewBox="0 0 390 390" fill="none" xmlns="http://www.w3.org/2000/svg">
<path fill-rule="evenodd" clip-rule="evenodd" d="M236.987 65.7651L214.759 141C231.635 142.627 245.356 147.604 251.501 154.122C277.064 154.709 297.081 156.586 304.109 160.619C330.418 175.715 343.788 283.96 325.674 316.305C323.419 320.33 317.76 323.533 309.578 326.057C310.993 328.04 311.824 330.444 311.824 333.027C311.824 339.778 306.141 345.305 299.195 345.305H96.4186C89.4728 345.305 83.7895 339.778 83.7895 333.027C83.7895 330.997 84.3028 329.078 85.2093 327.386C74.4461 324.688 66.9954 321.073 64.3244 316.305C46.2118 283.96 59.5841 175.715 85.889 160.619C94.296 155.794 121.289 154.053 154.128 153.918C158.538 149.384 166.629 145.613 176.886 143.22L126.381 96.0514C125.76 96.1512 125.129 96.2172 124.481 96.2172C117.953 96.2172 112.663 90.9255 112.663 84.4012C112.663 77.8709 117.955 72.5812 124.481 72.5812C131.01 72.5812 136.301 77.8709 136.301 84.4012C136.301 84.5794 136.289 84.7566 136.278 84.9326C136.273 84.9953 136.269 85.0579 136.265 85.1203L195.691 140.621C196.964 140.547 198.25 140.499 199.551 140.465L222.857 61.5882C221.513 59.6724 220.72 57.3412 220.72 54.8201C220.72 48.2899 226.011 43 232.538 43C239.066 43 244.356 48.2899 244.356 54.8201C244.356 59.7743 241.307 64.0052 236.987 65.7651ZM195 171.165C235.255 170.14 274.219 170.733 283.757 176.209C305.158 188.484 316.035 276.544 301.299 302.855C294.099 315.712 244.174 318.265 195 317.512C145.826 318.265 95.9011 315.71 88.6996 302.855C73.965 276.544 84.8422 188.486 106.241 176.209C115.782 170.733 154.746 170.14 195 171.165Z" fill="url(#paint0_linear)"/>
<defs>
<linearGradient id="paint0_linear" x1="326" y1="56" x2="74" y2="362" gradientUnits="userSpaceOnUse">
<stop stop-color="#FFDADA"/>
<stop offset="0.515625" stop-color="#F88A8A"/>
<stop offset="1" stop-color="#F46767"/>
</linearGradient>
</defs>
</svg>
